<svg width="45" height="38" viewBox="0 0 45 38" fill="none" xmlns="http://www.w3.org/2000/svg">
<path d="M11.0417 10.3334H33.9583M11.0417 19.5001H33.9583M33.9583 37L28 28.6667H6.4583C5.2428 28.6667 4.07697 28.1839 3.21743 27.3243C2.35789 26.4648 1.875 25.299 1.875 24.0834V5.7501C1.875 4.5345 2.35789 3.3687 3.21743 2.5092C4.07697 1.64963 5.2428 1.16675 6.4583 1.16675H38.5417C39.7572 1.16675 40.923 1.64963 41.7826 2.5092C42.6421 3.3687 43.125 4.5345 43.125 5.7501V24.0834C43.125 25.299 42.6421 26.4648 41.7826 27.3243C40.923 28.1839 39.7572 28.6667 38.5417 28.6667L33.9583 37Z" stroke="#ABFE2C" stroke-width="2" stroke-linecap="round" stroke-linejoin="round"/>
</svg>
