<svg width="39" height="45" viewBox="0 0 39 45" fill="none" xmlns="http://www.w3.org/2000/svg">
<path d="M10.3337 11.0417H5.7503C4.5347 11.0417 3.369 11.5246 2.5094 12.3841C1.64988 13.2436 1.16699 14.4094 1.16699 15.625V38.5417C1.16699 39.7572 1.64988 40.923 2.5094 41.7826C3.369 42.6421 4.5347 43.125 5.7503 43.125H24.0837C25.2992 43.125 26.465 42.6421 27.3246 41.7826C28.1841 40.923 28.667 39.7572 28.667 38.5417V33.9583M10.3337 11.0417V29.375M10.3337 11.0417V6.4583C10.3337 5.2428 10.8165 4.07697 11.6761 3.21743C12.5356 2.35789 13.7014 1.875 14.917 1.875H25.4266C26.0343 1.87513 26.6171 2.11666 27.0468 2.54646L37.1622 12.6619C37.592 13.0915 37.8335 13.6743 37.8337 14.2821V29.375C37.8337 30.5906 37.3508 31.7564 36.4912 32.6159C35.6317 33.4754 34.4659 33.9583 33.2503 33.9583H28.667M28.667 33.9583H14.917C13.7014 33.9583 12.5356 33.4754 11.6761 32.6159C10.8165 31.7564 10.3337 30.5906 10.3337 29.375M28.667 33.9583C14.9318 33.9362 11.5 35 10.3337 29.375" stroke="#ABFE2C" stroke-width="2" stroke-linecap="round" stroke-linejoin="round"/>
</svg>
