<svg width="35" height="44" viewBox="0 0 35 44" fill="none" xmlns="http://www.w3.org/2000/svg">
<path d="M10.1667 23.9167H23.9167H10.1667ZM17.0417 17.0417V30.7917V17.0417ZM28.5 42.25H5.58333C4.36776 42.25 3.20197 41.7671 2.34243 40.9076C1.48289 40.048 1 38.8822 1 37.6667V5.58333C1 4.36776 1.48289 3.20197 2.34243 2.34243C3.20197 1.48289 4.36776 1 5.58333 1H18.3846C18.9923 1.00013 19.5751 1.24166 20.0048 1.67146L32.4119 14.0785C32.8417 14.5082 33.0832 15.091 33.0833 15.6987V37.6667C33.0833 38.8822 32.6004 40.048 31.7409 40.9076C30.8814 41.7671 29.7156 42.25 28.5 42.25Z" stroke="#ABFE2C" stroke-width="2" stroke-linecap="round" stroke-linejoin="round"/>
</svg>
