<svg width="61" height="64" viewBox="0 0 61 64" fill="none" xmlns="http://www.w3.org/2000/svg">
<path d="M30.9053 19.1879C30.9053 18.6976 30.5078 18.3002 30.0176 18.3002C29.5274 18.3002 29.1299 18.6976 29.1299 19.1879C29.1299 20.1384 29.6702 21.6749 33.0176 21.9305V24.0834C33.0176 24.6361 33.4649 25.0834 34.0176 25.0834C34.5703 25.0834 35.0176 24.6361 35.0176 24.0834V21.9091C37.4996 21.6169 38.9053 20.205 38.9053 17.9252C38.9053 16.2443 38.1938 14.2759 35.0176 13.9367V10.0403C35.7645 10.1539 36.1165 10.3838 36.2705 10.5384C36.4492 10.7172 36.4639 10.8851 36.4649 10.9203C36.4336 11.3939 36.7823 11.8119 37.2588 11.8617C37.7559 11.9066 38.1826 11.558 38.2334 11.0707C38.2432 10.9779 38.3076 10.1449 37.6201 9.38221C37.0615 8.7628 36.1814 8.3929 35.0176 8.25931V6.0834C35.0176 5.5306 34.5703 5.0834 34.0176 5.0834C33.4649 5.0834 33.0176 5.5306 33.0176 6.0834V8.2447C29.6056 8.5606 29.1299 10.5154 29.1299 12.2416C29.1299 14.2588 30.4417 15.3846 33.0176 15.6085V20.1495C31.9029 20.0476 30.9053 19.7615 30.9053 19.1879ZM37.1299 17.9252C37.1299 18.4709 37.1281 19.8096 35.0176 20.1267V15.7183C36.512 15.9042 37.1299 16.5659 37.1299 17.9252ZM30.9053 12.2416C30.9053 11.261 30.907 10.2516 33.0176 10.0207V13.8353C30.907 13.6278 30.9053 12.7443 30.9053 12.2416Z" fill="#A2FD3C"/>
<path d="M59.0049 38.6195C58.124 37.3343 56.5283 35.9759 54.916 36.391C53.1582 36.8422 51.5821 38.6097 49.7569 40.6556C47.5948 43.0795 45.1455 45.8265 42.0733 46.7181C36.0948 48.4525 28.5684 47.1908 26.2256 46.7201C25.9756 46.3207 26.0283 45.0287 26.2578 44.7806C26.7676 44.5951 27.9698 44.7338 29.2373 44.8812C31.418 45.1332 34.4063 45.4789 37.8057 44.8236C38.5703 44.6771 39.377 43.9457 39.3516 42.3314C39.3164 40.1888 37.7012 36.9232 34.2178 36.3715C32.5586 36.1088 28.1524 35.4095 22.2627 35.0707C19.9092 34.9252 16.0313 37.8988 14.7315 38.9379H1.0176C0.456108 38.9379 0 39.3939 0 39.9554V52.8529C0 53.4144 0.456108 53.8705 1.0176 53.8705H11.1846C12.7051 55.0531 19.8028 60.4427 24.3281 61.5785C27.294 62.3226 31.0459 63.1029 34.8028 63.1029C37.5674 63.1029 40.335 62.68 42.794 61.5101C48.6612 58.7172 55.0528 49.5629 58.4864 44.6449C58.8926 44.0648 59.25 43.5511 59.5537 43.1273C60.5098 41.7904 59.8975 39.9222 59.0049 38.6195ZM2.0352 40.973H9.9239V51.8353H2.0352V40.973ZM57.8994 41.9437C57.5918 42.3734 57.2295 42.8929 56.8194 43.4808C53.7295 47.9047 47.3008 57.1117 41.9199 59.6742C36.711 62.1488 29.668 60.8207 24.8233 59.6058C20.2676 58.4623 12.249 52.1205 12.169 52.057C12.1516 52.0431 12.1295 52.0378 12.1114 52.0251V40.973H15.0918C15.3272 40.973 15.5557 40.891 15.7373 40.7416C17.6299 39.1869 20.8711 37.0726 22.1455 37.1019C27.9336 37.4349 32.2676 38.1224 33.8994 38.3812C35.7461 38.6732 36.6055 40.0453 36.9531 40.8373C37.375 41.7982 37.3555 42.5756 37.2656 42.8549C34.2354 43.4134 31.5987 43.1058 29.4707 42.8607C27.7598 42.6634 26.5264 42.5199 25.5635 42.8685C24.3789 43.2992 23.9492 44.8607 24.0489 46.2181C24.1494 47.5756 24.7696 48.5004 25.708 48.6918C28.0313 49.1654 36.1192 50.5638 42.6397 48.6713C46.2744 47.6175 49.0469 44.5082 51.2744 42.0101C52.8115 40.2865 54.2637 38.6586 55.4209 38.3617C55.7627 38.2767 56.6074 38.7181 57.3262 39.7689C57.9785 40.7211 58.1289 41.6224 57.8994 41.9437Z" fill="#A2FD3C"/>
<path d="M34.0176 30C42.3019 30 49.0176 23.2843 49.0176 15C49.0176 6.7158 42.3019 0 34.0176 0C25.7333 0 19.0176 6.7158 19.0176 15C19.0176 23.2843 25.7333 30 34.0176 30ZM34.0176 2C41.1858 2 47.0176 7.8318 47.0176 15C47.0176 22.1683 41.1858 28 34.0176 28C26.8494 28 21.0176 22.1683 21.0176 15C21.0176 7.8318 26.8494 2 34.0176 2Z" fill="#A2FD3C"/>
</svg>
